<?xml version="1.0" encoding="UTF-8" standalone="no"?>
<svg width="298px" height="65px" viewBox="0 0 298 65" version="1.1" xmlns="http://www.w3.org/2000/svg" xmlns:xlink="http://www.w3.org/1999/xlink" xmlns:sketch="http://www.bohemiancoding.com/sketch/ns">
    <title>ts-logo</title>
    <description>Created with Sketch (http://www.bohemiancoding.com/sketch)</description>
    <defs></defs>
    <g id="Page 1" stroke="none" stroke-width="1" fill="none" fill-rule="evenodd">
        <g id="Group" transform="translate(-147.000000, -67.000000)">
            <g id="Layer_1" transform="translate(147.000000, 67.000000)">
                <path d="M10.084,8.708 L18.356,8.708 L18.356,13.366 L10.084,13.366 L10.084,26.767 C10.084,29.852 12.299,30.726 13.813,30.726 C15.677,30.726 17.601,30.086 19.697,28.804 L19.697,33.64 C17.892,34.631 15.093,35.388 13.405,35.388 C7.754,35.388 4.899,31.891 4.899,27.175 L4.899,13.366 L0.356,13.366 L0.356,12.784 L10.084,3.286 L10.084,8.708 L10.084,8.708 Z M10.084,8.708" id="Shape" fill="#FFFFFF"></path>
                <path d="M40.029,34.864 L40.029,31.543 C37.875,33.873 34.844,35.389 32.282,35.389 C26.98,35.389 23.253,31.601 23.253,24.96 L23.253,8.708 L28.435,8.708 L28.435,25.306 C28.435,28.977 30.243,31.077 33.794,31.077 C36.126,31.077 38.339,29.793 40.029,27.404 L40.029,8.708 L45.212,8.708 L45.212,34.863 L40.029,34.863 L40.029,34.864 Z M40.029,34.864" id="Shape" fill="#FFFFFF"></path>
                <path d="M58.088,8.708 L58.088,14.705 L58.205,14.705 C60.828,10.105 63.332,8.181 65.777,8.181 C67.877,8.181 69.857,9.172 72.011,11.212 L69.274,15.694 C67.701,14.182 65.661,13.132 64.44,13.132 C60.884,13.132 58.088,16.687 58.088,21.172 L58.088,34.863 L52.903,34.863 L52.903,8.708 L58.088,8.708 L58.088,8.708 Z M58.088,8.708" id="Shape" fill="#FFFFFF"></path>
                <path d="M80.692,12.143 L80.807,12.143 C82.788,9.639 85.701,8.181 88.615,8.181 C93.566,8.181 97.527,11.559 97.527,18.727 L97.527,34.864 L92.342,34.864 L92.342,18.668 C92.342,14.824 90.363,12.316 87.218,12.316 C84.942,12.316 83.137,13.366 80.692,16.103 L80.692,34.863 L75.507,34.863 L75.507,8.708 L80.692,8.708 L80.692,12.143 L80.692,12.143 Z M80.692,12.143" id="Shape" fill="#FFFFFF"></path>
                <path d="M121.938,19.134 C121.763,15.173 119.491,12.667 115.82,12.667 C111.859,12.667 109.468,14.997 108.769,19.134 L121.938,19.134 L121.938,19.134 Z M126.596,32.299 C123.45,34.395 120.598,35.388 116.17,35.388 C108.015,35.388 103.47,28.687 103.47,21.465 C103.47,13.539 108.479,8.181 115.703,8.181 C122.637,8.181 127.063,12.9 127.063,22.569 L108.655,22.569 C109.468,27.756 112.443,30.435 117.452,30.435 C120.598,30.435 123.568,29.27 126.596,27.29 L126.596,32.299 L126.596,32.299 Z M126.596,32.299" id="Shape" fill="#FFFFFF"></path>
                <path d="M138.189,8.708 L138.189,14.705 L138.304,14.705 C140.927,10.105 143.431,8.181 145.878,8.181 C147.976,8.181 149.956,9.172 152.113,11.212 L149.373,15.694 C147.8,14.182 145.761,13.132 144.539,13.132 C140.983,13.132 138.189,16.687 138.189,21.172 L138.189,34.863 L133.004,34.863 L133.004,8.708 L138.189,8.708 L138.189,8.708 Z M138.189,8.708" id="Shape" fill="#FFFFFF"></path>
                <path d="M170.053,13.427 C167.141,11.502 165.219,10.743 162.887,10.743 C159.741,10.743 157.294,12.668 157.294,15.173 C157.294,21.465 170.871,19.074 170.871,28.164 C170.871,32.243 167.141,35.389 162.306,35.389 C159.626,35.389 157.123,34.632 154.441,32.998 L154.441,30.26 C157.878,32.009 160.151,32.651 162.655,32.651 C165.862,32.651 168.189,30.783 168.189,28.106 C168.189,21.873 154.617,23.734 154.617,15.347 C154.617,11.327 158.344,8.181 163.063,8.181 C165.334,8.181 167.434,8.88 170.053,10.394 L170.053,13.427 L170.053,13.427 Z M170.053,13.427" id="Shape" fill="#FFFFFF"></path>
                <path d="M194.755,12.548 C191.724,11.27 190.151,10.919 187.941,10.919 C182.113,10.919 178.093,15.347 178.093,21.872 C178.093,28.452 181.996,32.651 188.173,32.651 C190.559,32.651 192.308,32.299 195.221,31.134 L195.221,34.048 C192.251,35.037 190.383,35.388 187.941,35.388 C180.247,35.388 175.123,30.086 175.123,22.161 C175.123,13.949 180.365,8.181 187.821,8.181 C190.095,8.181 191.841,8.532 194.755,9.463 L194.755,12.548 L194.755,12.548 Z M194.755,12.548" id="Shape" fill="#FFFFFF"></path>
                <path d="M212.755,10.919 C206.811,10.919 202.383,15.523 202.383,21.814 C202.383,28.044 206.811,32.651 212.755,32.651 C218.639,32.651 223.065,28.045 223.065,21.814 C223.064,15.582 218.639,10.919 212.755,10.919 M212.755,35.389 C205.123,35.389 199.413,29.562 199.413,21.814 C199.413,14.009 205.123,8.181 212.755,8.181 C220.385,8.181 226.035,14.009 226.035,21.814 C226.035,29.562 220.385,35.389 212.755,35.389" id="Shape" fill="#FFFFFF"></path>
                <path d="M237.279,8.708 L244.621,8.708 L244.621,10.975 L237.279,10.975 L237.279,26.533 C237.279,31.019 237.34,32.651 241.184,32.651 C242.757,32.651 243.631,32.416 245.961,31.366 L245.961,34.048 C245.436,34.336 244.562,34.631 243.57,34.92 C242.581,35.154 241.475,35.388 240.542,35.388 C237.63,35.388 234.485,33.755 234.485,29.793 L234.485,10.975 L227.436,10.975 L227.436,8.708 L234.485,8.708 L234.485,2.473 L236.405,0.026 L237.279,0.026 L237.279,8.708 L237.279,8.708 Z M237.279,8.708" id="Shape" fill="#FFFFFF"></path>
                <path d="M254.871,8.708 L262.212,8.708 L262.212,10.975 L254.871,10.975 L254.871,26.533 C254.871,31.019 254.932,32.651 258.776,32.651 C260.349,32.651 261.223,32.416 263.553,31.366 L263.553,34.048 C263.028,34.336 262.154,34.631 261.162,34.92 C260.173,35.154 259.067,35.388 258.134,35.388 C255.222,35.388 252.076,33.755 252.076,29.793 L252.076,10.975 L245.028,10.975 L245.028,8.708 L252.076,8.708 L252.076,2.473 L253.999,0.026 L254.871,0.026 L254.871,8.708 L254.871,8.708 Z M254.871,8.708" id="Shape" fill="#FFFFFF"></path>
                <path d="M278.79599,0.0260009766 L278.79599,37.1609993 L297.505989,37.1609993 L297.505989,0.0260009766 L278.79599,0.0260009766 Z M278.79599,0.0260009766" id="Rectangle" fill="#3DBAB8"></path>
                <path d="M272.498,64.093 L229.215,63.813 L278.796,37.161 L297.506,37.161 L272.498,64.093 Z M272.498,64.093" id="Shape" fill="#5C5C5C"></path>
                <path d="M171.783,46.25 C171.142,46.25 170.594,46.459 170.138,46.878 C169.683,47.296 169.455,47.802 169.455,48.397 C169.455,48.825 169.549,49.175 169.736,49.447 C169.923,49.719 170.151,49.928 170.42,50.075 C170.688,50.221 171.135,50.415 171.76,50.655 C172.385,50.895 172.8,51.153 173.004,51.429 C173.209,51.705 173.311,52.015 173.311,52.358 C173.311,52.81 173.146,53.191 172.816,53.502 C172.486,53.813 172.082,53.968 171.603,53.968 C171.028,53.968 170.348,53.681 169.565,53.105 L169.565,53.841 C170.275,54.312 170.966,54.547 171.638,54.547 C172.294,54.547 172.85,54.333 173.305,53.904 C173.761,53.476 173.989,52.951 173.989,52.329 C173.989,51.862 173.89,51.482 173.693,51.189 C173.497,50.896 173.257,50.672 172.975,50.517 C172.694,50.363 172.246,50.17 171.632,49.938 C171.018,49.706 170.615,49.465 170.422,49.214 C170.229,48.963 170.132,48.682 170.132,48.369 C170.132,47.933 170.295,47.567 170.622,47.272 C170.948,46.976 171.354,46.829 171.84,46.829 C172.346,46.829 172.95,47.035 173.653,47.448 L173.653,46.759 C173.035,46.42 172.412,46.25 171.783,46.25 L171.783,46.25 Z M161.803,46.354 L161.803,46.875 L164.837,46.875 L164.837,54.443 L165.469,54.443 L165.469,46.875 L168.503,46.875 L168.503,46.354 L161.803,46.354 L161.803,46.354 Z M159.849,46.354 L159.849,53.424 L153.715,46.354 L153.185,46.354 L153.185,54.443 L153.81,54.443 L153.81,47.373 L159.96,54.443 L160.475,54.443 L160.475,46.354 L159.849,46.354 L159.849,46.354 Z M147.039,46.354 L147.039,54.443 L151.544,54.443 L151.544,53.922 L147.664,53.922 L147.664,50.639 L151.352,50.639 L151.352,50.112 L147.664,50.112 L147.664,46.875 L151.451,46.875 L151.451,46.354 L147.039,46.354 L147.039,46.354 Z M142.137,46.25 C140.891,46.25 139.855,46.642 139.031,47.428 C138.207,48.214 137.795,49.197 137.795,50.378 C137.795,51.567 138.215,52.559 139.054,53.354 C139.894,54.15 140.941,54.547 142.195,54.547 C143.157,54.547 144.114,54.319 145.067,53.864 L145.067,50.766 L142.728,50.766 L142.728,51.287 L144.436,51.287 L144.436,53.47 C143.792,53.802 143.052,53.968 142.219,53.968 C141.064,53.968 140.151,53.629 139.48,52.952 C138.808,52.274 138.472,51.424 138.472,50.401 C138.472,49.378 138.812,48.527 139.491,47.848 C140.171,47.168 141.022,46.829 142.045,46.829 C142.998,46.829 143.954,47.101 144.911,47.645 L144.911,46.939 C143.911,46.479 142.987,46.25 142.137,46.25 L142.137,46.25 Z M131.744,51.125 L133.481,47.315 L135.224,51.125 L131.744,51.125 L131.744,51.125 Z M133.315,46.296 L129.576,54.443 L130.232,54.443 L131.507,51.646 L135.463,51.646 L136.742,54.443 L137.398,54.443 L133.659,46.296 L133.315,46.296 L133.315,46.296 Z M122.64,46.25 C121.393,46.25 120.357,46.642 119.533,47.428 C118.709,48.214 118.297,49.197 118.297,50.378 C118.297,51.567 118.717,52.559 119.556,53.354 C120.396,54.15 121.443,54.547 122.698,54.547 C123.659,54.547 124.616,54.319 125.57,53.864 L125.57,50.766 L123.23,50.766 L123.23,51.287 L124.938,51.287 L124.938,53.47 C124.294,53.802 123.555,53.968 122.721,53.968 C121.566,53.968 120.654,53.629 119.982,52.952 C119.31,52.274 118.974,51.424 118.974,50.401 C118.974,49.378 119.314,48.527 119.993,47.848 C120.673,47.168 121.524,46.829 122.547,46.829 C123.5,46.829 124.456,47.101 125.413,47.645 L125.413,46.939 C124.413,46.479 123.489,46.25 122.64,46.25 L122.64,46.25 Z M115.799,46.354 L115.799,53.424 L109.664,46.354 L109.134,46.354 L109.134,54.443 L109.759,54.443 L109.759,47.373 L115.909,54.443 L116.424,54.443 L116.424,46.354 L115.799,46.354 L115.799,46.354 Z M106.312,54.443 L106.937,54.443 L106.937,46.354 L106.312,46.354 L106.312,54.443 L106.312,54.443 Z M98.278,46.354 L98.278,46.875 L101.312,46.875 L101.312,54.443 L101.943,54.443 L101.943,46.875 L104.977,46.875 L104.977,46.354 L98.278,46.354 L98.278,46.354 Z M91.124,46.354 L91.124,46.875 L94.158,46.875 L94.158,54.443 L94.79,54.443 L94.79,46.875 L97.824,46.875 L97.824,46.354 L91.124,46.354 L91.124,46.354 Z M85.858,46.354 L85.858,54.443 L90.363,54.443 L90.363,53.922 L86.484,53.922 L86.484,50.639 L90.172,50.639 L90.172,50.112 L86.484,50.112 L86.484,46.875 L90.271,46.875 L90.271,46.354 L85.858,46.354 L85.858,46.354 Z M79.926,46.354 L79.926,54.443 L84.553,54.443 L84.553,53.922 L80.552,53.922 L80.552,46.354 L79.926,46.354 L79.926,46.354 Z M70.356,46.354 L70.356,54.443 L74.982,54.443 L74.982,53.922 L70.981,53.922 L70.981,46.354 L70.356,46.354 L70.356,46.354 Z M63.367,51.125 L65.104,47.315 L66.847,51.125 L63.367,51.125 L63.367,51.125 Z M64.938,46.296 L61.199,54.443 L61.855,54.443 L63.13,51.646 L67.086,51.646 L68.365,54.443 L69.021,54.443 L65.282,46.296 L64.938,46.296 L64.938,46.296 Z M59.256,54.443 L59.881,54.443 L59.881,46.354 L59.256,46.354 L59.256,54.443 L59.256,54.443 Z M51.223,46.354 L51.223,46.875 L54.257,46.875 L54.257,54.443 L54.888,54.443 L54.888,46.875 L57.922,46.875 L57.922,46.354 L51.223,46.354 L51.223,46.354 Z M49.269,46.354 L49.269,53.424 L43.134,46.354 L42.604,46.354 L42.604,54.443 L43.229,54.443 L43.229,47.373 L49.379,54.443 L49.894,54.443 L49.894,46.354 L49.269,46.354 L49.269,46.354 Z M36.458,46.354 L36.458,54.443 L40.963,54.443 L40.963,53.922 L37.083,53.922 L37.083,50.639 L40.772,50.639 L40.772,50.112 L37.083,50.112 L37.083,46.875 L40.87,46.875 L40.87,46.354 L36.458,46.354 L36.458,46.354 Z M30.177,46.875 C31.268,46.875 32.157,47.203 32.843,47.859 C33.53,48.516 33.873,49.363 33.873,50.401 C33.873,51.463 33.525,52.315 32.829,52.958 C32.133,53.6 31.262,53.922 30.217,53.922 L27.938,53.922 L27.938,46.875 L30.177,46.875 L30.177,46.875 Z M27.313,54.443 L30.252,54.443 C31.625,54.443 32.685,54.062 33.431,53.299 C34.177,52.537 34.55,51.571 34.55,50.401 C34.55,49.209 34.173,48.236 33.419,47.483 C32.665,46.73 31.573,46.354 30.142,46.354 L27.313,46.354 L27.313,54.443 L27.313,54.443 Z M24.479,54.443 L25.104,54.443 L25.104,46.354 L24.479,46.354 L24.479,54.443 L24.479,54.443 Z M20.504,46.25 C19.863,46.25 19.315,46.459 18.859,46.878 C18.404,47.296 18.176,47.802 18.176,48.397 C18.176,48.825 18.27,49.175 18.457,49.447 C18.644,49.719 18.872,49.928 19.141,50.075 C19.409,50.221 19.856,50.415 20.481,50.655 C21.106,50.895 21.521,51.153 21.726,51.429 C21.93,51.705 22.032,52.015 22.032,52.358 C22.032,52.81 21.867,53.191 21.537,53.502 C21.207,53.813 20.803,53.968 20.324,53.968 C19.749,53.968 19.07,53.681 18.286,53.105 L18.286,53.841 C18.996,54.312 19.687,54.547 20.359,54.547 C21.015,54.547 21.571,54.333 22.027,53.904 C22.482,53.476 22.71,52.951 22.71,52.329 C22.71,51.862 22.611,51.482 22.415,51.189 C22.218,50.896 21.978,50.672 21.697,50.517 C21.415,50.363 20.967,50.17 20.353,49.938 C19.739,49.706 19.336,49.465 19.143,49.214 C18.95,48.963 18.854,48.682 18.854,48.369 C18.854,47.933 19.017,47.567 19.343,47.272 C19.669,46.976 20.075,46.829 20.562,46.829 C21.067,46.829 21.671,47.035 22.374,47.448 L22.374,46.759 C21.756,46.42 21.133,46.25 20.504,46.25 L20.504,46.25 Z M12.412,46.354 L12.412,54.443 L16.917,54.443 L16.917,53.922 L13.038,53.922 L13.038,50.639 L16.726,50.639 L16.726,50.112 L13.038,50.112 L13.038,46.875 L16.824,46.875 L16.824,46.354 L12.412,46.354 L12.412,46.354 Z M7.193,46.875 C7.88,46.875 8.407,47.014 8.773,47.292 C9.14,47.57 9.323,47.958 9.323,48.456 C9.323,48.962 9.143,49.352 8.782,49.628 C8.421,49.904 7.899,50.042 7.216,50.042 L5.872,50.042 L5.872,46.875 L7.193,46.875 L7.193,46.875 Z M5.247,54.443 L5.872,54.443 L5.872,50.563 L6.966,50.563 C7.472,50.563 7.856,50.655 8.118,50.839 C8.381,51.022 8.747,51.485 9.218,52.226 L10.627,54.443 L11.367,54.443 L9.538,51.646 C9.086,50.951 8.727,50.54 8.461,50.413 C9.487,50.035 10.001,49.378 10.001,48.444 C10.001,47.803 9.771,47.295 9.312,46.918 C8.852,46.542 8.188,46.354 7.32,46.354 L5.247,46.354 L5.247,54.443 L5.247,54.443 Z M5.247,54.443" id="Shape" fill="#FFFFFF"></path>
            </g>
            <g id="Layer_2"></g>
        </g>
    </g>
</svg>